<svg xmlns="http://www.w3.org/2000/svg" width="338.99" height="35" viewBox="0 0 338.99 35"><rect class="svg__rect" x="0" y="0" width="93.72" height="35" fill="#CBB5FF"/><rect class="svg__rect" x="91.72" y="0" width="247.27" height="35" fill="#A5A6A6"/><path class="svg__text" d="M13.78 19.42L13.78 19.42L15.27 19.42Q15.27 20.15 15.75 20.55Q16.23 20.95 17.12 20.95L17.12 20.95Q17.90 20.95 18.29 20.63Q18.68 20.32 18.68 19.80L18.68 19.80Q18.68 19.24 18.28 18.94Q17.89 18.63 16.85 18.32Q15.82 18.01 15.21 17.63L15.21 17.63Q14.05 16.90 14.05 15.72L14.05 15.72Q14.05 14.69 14.89 14.02Q15.73 13.35 17.07 13.35L17.07 13.35Q17.96 13.35 18.66 13.68Q19.36 14.01 19.75 14.61Q20.15 15.22 20.15 15.96L20.15 15.96L18.68 15.96Q18.68 15.29 18.26 14.91Q17.84 14.54 17.06 14.54L17.06 14.54Q16.33 14.54 15.93 14.85Q15.53 15.16 15.53 15.71L15.53 15.71Q15.53 16.18 15.96 16.50Q16.40 16.81 17.39 17.10Q18.39 17.40 18.99 17.78Q19.60 18.16 19.88 18.65Q20.16 19.13 20.16 19.79L20.16 19.79Q20.16 20.86 19.34 21.49Q18.52 22.12 17.12 22.12L17.12 22.12Q16.20 22.12 15.42 21.77Q14.64 21.43 14.21 20.83Q13.78 20.22 13.78 19.42ZM25.93 22L24.45 22L24.45 13.47L25.93 13.47L25.93 17.02L29.74 17.02L29.74 13.47L31.22 13.47L31.22 22L29.74 22L29.74 18.21L25.93 18.21L25.93 22ZM35.83 19.16L35.83 19.16L35.83 13.47L37.30 13.47L37.30 19.18Q37.30 20.03 37.74 20.48Q38.17 20.93 39.01 20.93L39.01 20.93Q40.73 20.93 40.73 19.13L40.73 19.13L40.73 13.47L42.20 13.47L42.20 19.17Q42.20 20.53 41.33 21.32Q40.46 22.12 39.01 22.12L39.01 22.12Q37.55 22.12 36.69 21.33Q35.83 20.55 35.83 19.16ZM48.45 14.66L45.82 14.66L45.82 13.47L52.58 13.47L52.58 14.66L49.92 14.66L49.92 22L48.45 22L48.45 14.66ZM62.18 19.16L62.18 19.16L62.18 13.47L63.66 13.47L63.66 19.18Q63.66 20.03 64.09 20.48Q64.53 20.93 65.37 20.93L65.37 20.93Q67.08 20.93 67.08 19.13L67.08 19.13L67.08 13.47L68.56 13.47L68.56 19.17Q68.56 20.53 67.69 21.32Q66.82 22.12 65.37 22.12L65.37 22.12Q63.90 22.12 63.04 21.33Q62.18 20.55 62.18 19.16ZM74.61 22L73.13 22L73.13 13.47L76.39 13.47Q77.82 13.47 78.66 14.21Q79.50 14.96 79.50 16.18L79.50 16.18Q79.50 17.44 78.68 18.13Q77.86 18.83 76.37 18.83L76.37 18.83L74.61 18.83L74.61 22ZM74.61 14.66L74.61 17.64L76.39 17.64Q77.18 17.64 77.60 17.27Q78.01 16.90 78.01 16.19L78.01 16.19Q78.01 15.50 77.59 15.09Q77.17 14.68 76.43 14.66L76.43 14.66L74.61 14.66Z" fill="#000000"/><path class="svg__text" d="M108.29 22L105.91 22L105.91 13.60L108.29 13.60L108.29 22ZM113.26 17.10L113.11 13.60L115.04 13.60L114.88 17.10L113.26 17.10ZM122.04 22L119.85 22L119.85 13.60L121.80 13.60L124.76 18.45L127.64 13.60L129.59 13.60L129.61 22L127.44 22L127.41 17.55L125.25 21.17L124.19 21.17L122.04 17.67L122.04 22ZM144.13 22L141.75 22L141.75 13.60L144.13 13.60L144.13 22ZM151.63 22L149.30 22L149.30 13.60L151.26 13.60L154.97 18.07L154.97 13.60L157.29 13.60L157.29 22L155.34 22L151.63 17.52L151.63 22ZM171.63 22L169.43 22L169.43 13.60L171.39 13.60L174.34 18.45L177.22 13.60L179.17 13.60L179.20 22L177.02 22L176.99 17.55L174.83 21.17L173.78 21.17L171.63 17.67L171.63 22ZM186.49 18.95L183.28 13.60L185.79 13.60L187.78 16.94L189.77 13.60L192.08 13.60L188.86 18.99L188.86 22L186.49 22L186.49 18.95ZM205.33 22L203.13 22L203.13 13.60L205.09 13.60L208.04 18.45L210.93 13.60L212.88 13.60L212.90 22L210.72 22L210.70 17.55L208.53 21.17L207.48 21.17L205.33 17.67L205.33 22ZM220.44 22L218.06 22L218.06 13.60L220.44 13.60L220.44 22ZM227.95 22L225.61 22L225.61 13.60L227.57 13.60L231.28 18.07L231.28 13.60L233.61 13.60L233.61 22L231.66 22L227.95 17.52L227.95 22ZM242.74 22L238.77 22L238.77 13.60L242.74 13.60Q244.12 13.60 245.19 14.12Q246.26 14.63 246.85 15.58Q247.44 16.53 247.44 17.80L247.44 17.80Q247.44 19.07 246.85 20.02Q246.26 20.97 245.19 21.48Q244.12 22 242.74 22L242.74 22ZM241.15 15.50L241.15 20.10L242.65 20.10Q243.73 20.10 244.38 19.49Q245.03 18.88 245.03 17.80L245.03 17.80Q245.03 16.72 244.38 16.11Q243.73 15.50 242.65 15.50L242.65 15.50L241.15 15.50ZM261.52 22L259.14 22L259.14 13.60L262.98 13.60Q264.12 13.60 264.96 13.98Q265.80 14.35 266.26 15.06Q266.71 15.76 266.71 16.71L266.71 16.71Q266.71 17.66 266.26 18.35Q265.80 19.05 264.96 19.42Q264.12 19.80 262.98 19.80L262.98 19.80L261.52 19.80L261.52 22ZM261.52 15.47L261.52 17.93L262.83 17.93Q263.57 17.93 263.94 17.61Q264.31 17.29 264.31 16.71L264.31 16.71Q264.31 16.12 263.94 15.80Q263.57 15.47 262.83 15.47L262.83 15.47L261.52 15.47ZM272.88 22L270.46 22L274.17 13.60L276.51 13.60L280.22 22L277.76 22L277.10 20.37L273.54 20.37L272.88 22ZM275.32 15.93L274.24 18.61L276.40 18.61L275.32 15.93ZM290.77 22L284.38 22L284.38 13.60L286.76 13.60L286.76 20.11L290.77 20.11L290.77 22ZM296.60 22L294.18 22L297.88 13.60L300.23 13.60L303.94 22L301.48 22L300.81 20.37L297.26 20.37L296.60 22ZM299.04 15.93L297.95 18.61L300.12 18.61L299.04 15.93ZM307.67 17.80L307.67 17.80Q307.67 16.54 308.27 15.54Q308.86 14.55 309.92 13.99Q310.97 13.43 312.29 13.43L312.29 13.43Q313.44 13.43 314.36 13.84Q315.29 14.25 315.90 15.02L315.90 15.02L314.39 16.39Q313.58 15.40 312.41 15.40L312.41 15.40Q311.72 15.40 311.19 15.70Q310.66 16 310.36 16.54Q310.07 17.09 310.07 17.80L310.07 17.80Q310.07 18.51 310.36 19.05Q310.66 19.60 311.19 19.90Q311.72 20.20 312.41 20.20L312.41 20.20Q313.58 20.20 314.39 19.22L314.39 19.22L315.90 20.58Q315.29 21.35 314.37 21.76Q313.44 22.17 312.29 22.17L312.29 22.17Q310.97 22.17 309.92 21.61Q308.86 21.05 308.27 20.05Q307.67 19.06 307.67 17.80ZM327.18 22L320.44 22L320.44 13.60L327.03 13.60L327.03 15.44L322.79 15.44L322.79 16.85L326.53 16.85L326.53 18.63L322.79 18.63L322.79 20.17L327.18 20.17L327.18 22Z" fill="#FFFFFF" x="104.72"/></svg>